<svg width="422" height="450" xmlns="http://www.w3.org/2000/svg" xmlns:xlink="http://www.w3.org/1999/xlink" overflow="hidden"><defs><clipPath id="clip0"><rect x="429" y="11" width="422" height="450"/></clipPath></defs><g clip-path="url(#clip0)" transform="translate(-429 -11)"><path d="M664.012 445.8C649.287 433.332 651.484 410.712 651.959 391.416 652.196 383.164 649.821 372.477 641.628 371.468 632.306 370.34 628.031 382.867 628.268 392.307 628.684 410.653 631.89 431.967 618.591 444.672 608.734 454.112 593.535 454.587 579.819 454.409 557.257 454.172 534.695 453.934 512.192 453.756 494.795 453.578 474.786 452.094 464.514 438.082 452.461 421.577 460.893 396.819 450.68 379.186 446.821 372.477 440.468 367.252 437.737 360.009 433.165 348.016 441.833 332.936 454.48 330.798 444.743 303.131 441.18 273.208 444.149 243.997 445.633 228.977 448.899 214.193 452.105 199.469 454.243 189.495 456.439 179.402 460.714 170.14 465.227 160.403 460.418 149.241 457.449 138.91 453.055 123.711 452.936 107.325 457.033 92.0665 458.755 85.5356 464.336 77.7579 470.452 80.5484 481.258 56.0281 500.851 35.4856 524.839 23.4926 535.942 17.9117 551.735 15.1807 559.038 25.2737 576.197 49.0816 604.519 62.3807 632.84 69.9803 661.162 77.6392 690.671 80.6078 718.695 89.2166 746.779 97.8254 774.388 113.262 788.995 138.732 793.091 145.857 796.119 153.634 801.404 159.868 805.619 164.856 811.082 168.537 815.772 173.049 833.703 190.445 838.156 217.399 838.097 242.394 838.038 271.902 833.11 301.41 823.491 329.373 835.781 336.379 848.784 349.619 843.144 362.621 840.65 368.262 835.247 371.943 831.506 376.87 818.741 393.732 829.072 420.33 816.9 437.726 806.985 451.856 786.976 453.459 769.638 453.637 747.017 453.934 724.395 454.172 701.714 454.469 688.533 454.647 674.046 454.35 664.012 445.8M834.238 238.417C833.822 216.093 830.022 192.166 814.347 176.255 808.054 169.843 800.038 165.034 794.576 157.85 789.826 151.675 787.273 144.135 783.591 137.248 771.004 114.153 745.829 100.497 720.477 93.3726 695.183 86.2481 668.643 84.3481 643.171 77.5205 608.2 68.2585 575.782 49.6753 550.013 24.2644 547.104 21.3552 542.354 22.0083 538.376 23.1363 506.254 32.3389 479.833 59.3528 471.342 91.7102 469.442 90.1665 468.611 87.3167 469.502 85.0012 467.305 82.2701 463.268 86.0699 462.139 89.3947 456.202 106.315 456.143 125.196 462.021 142.176 464.93 150.725 469.324 160.343 464.989 168.299 462.436 172.989 461.189 178.273 459.943 183.439 449.433 227.374 440.171 274.039 453.708 317.143 454.539 319.815 455.489 322.546 457.271 324.742 464.217 333.529 479.417 328.958 485.533 319.518 491.708 310.137 492.064 298.322 494.558 287.398 501.564 256.525 526.976 231.708 556.782 221.14 566.697 217.696 578.275 214.549 582.669 205.05 610.575 208.315 638.718 206.475 666.743 207.722 694.768 208.968 723.564 213.54 747.492 228.205 771.42 242.869 789.648 269.29 787.985 297.313 787.57 304.259 786.144 311.74 789.588 317.737 793.922 325.277 803.838 327.058 812.507 328.008 814.763 328.245 817.197 328.483 819.216 327.414 821.769 325.989 822.838 322.902 823.669 320.052 831.091 293.572 834.713 265.965 834.238 238.417M553.635 226.245C522.523 237.882 498.951 267.568 494.677 300.46 493.667 308.297 493.667 316.371 491.589 323.971 590.625 319.933 689.84 319.815 788.935 323.733 781.513 314.352 784.304 300.935 783.829 289.001 782.701 261.809 761.979 238.417 737.458 226.602 712.936 214.787 685.03 212.531 657.837 211.343 637.412 210.453 616.928 210.096 596.503 209.681 591.338 209.622 585.638 209.74 581.897 213.243 574.297 220.368 563.432 222.624 553.635 226.245M624.469 391.119C624.528 381.323 628.328 369.39 638.006 367.846 645.665 366.599 652.731 373.308 654.987 380.789 657.302 388.21 656.115 396.166 655.462 403.944 654.156 419.796 656.887 438.557 670.78 446.275 677.846 450.194 686.336 450.253 694.411 450.253 720.477 450.194 746.601 450.194 772.667 450.135 780.623 450.135 788.757 450.075 796.238 447.522 808.588 443.307 818.207 431.967 820.344 419.083 822.482 406.319 817.91 392.129 824.203 380.789 828.36 373.367 836.672 368.44 839.344 360.365 842.431 350.866 836.138 340.298 827.469 335.192 818.86 330.145 808.469 329.314 798.435 328.661 720.417 323.792 642.103 324.564 563.907 325.336 530.42 325.692 496.695 326.049 463.802 332.461 453.352 334.539 441.002 339.288 439.518 349.856 438.033 360.84 449.433 368.677 454.955 378.295 464.93 395.691 455.608 420.211 467.661 436.242 477.28 449.006 495.686 450.194 511.658 450.194 536.773 450.194 561.888 450.194 586.944 450.253 595.85 450.253 605.409 450.075 612.772 445.029 620.728 439.626 624.29 429.592 625.122 419.974 625.893 410.356 624.35 400.738 624.469 391.119" stroke="#00B0F0" stroke-width="13.3333" stroke-linecap="round" stroke-linejoin="round" stroke-miterlimit="10" stroke-opacity="0.411765" fill="#FFFFFF" fill-rule="evenodd"/><path d="M562.507 413.277C551.88 414.752 540.662 408.791 535.939 399.171 531.275 389.55 533.459 377.038 541.135 369.601 548.81 362.105 561.385 360.334 570.832 365.292 580.337 370.25 585.946 381.641 584.175 392.206 583.466 396.515 579.688 399.702 575.673 401.354 574.906 405.84 571.776 409.912 567.644 411.801 566.05 412.568 564.278 412.982 562.507 413.277M542.906 403.243C545.681 406.194 549.223 408.319 553.12 409.381 555.422 409.972 557.843 410.208 560.264 410.03 563.511 409.853 566.876 408.909 569.238 406.548 571.54 404.246 572.485 400.351 570.714 397.577 574.02 398.521 577.74 396.515 579.511 393.564 581.282 390.612 581.4 386.894 580.692 383.471 578.802 374.618 570.95 367.299 561.976 366.119 552.943 364.879 543.437 369.837 539.304 377.923 535.171 386.009 536.647 396.633 542.906 403.243" stroke="#FFFFFF" stroke-width="13.3333" stroke-linecap="round" stroke-linejoin="round" stroke-miterlimit="10" stroke-opacity="0.411765" fill="#FFFFFF" fill-rule="evenodd"/><path d="M735.858 411.621C725.906 415.802 713.481 412.799 706.474 404.673 699.466 396.489 698.524 383.713 704.177 374.586 709.83 365.401 721.666 360.573 732.089 363.223 742.571 365.813 750.756 375.646 751.463 386.362 751.639 389.542 751.227 392.898 749.461 395.488 747.635 398.197 744.514 399.963 743.101 402.907 742.394 404.261 742.159 405.851 741.452 407.146 740.274 409.325 738.095 410.679 735.858 411.621M733.738 408.618C735.269 408.089 736.741 407.264 737.801 406.028 739.862 403.673 739.626 399.669 737.271 397.549 740.392 398.786 744.102 397.137 745.986 394.429 747.871 391.661 748.224 388.128 747.753 384.831 746.398 375.882 739.038 368.109 730.146 366.402 721.254 364.636 711.479 369.052 706.886 376.883 702.293 384.714 703.235 395.371 709.065 402.259 714.953 409.207 725.317 411.857 733.738 408.618" stroke="#FFFFFF" stroke-width="13.3333" stroke-linecap="round" stroke-linejoin="round" stroke-miterlimit="10" stroke-opacity="0.411765" fill="#FFFFFF" fill-rule="evenodd"/><path d="M601.718 353.664C604.386 357.728 605.097 362.809 605.571 367.71 606.994 382.114 606.757 396.698 605.038 411.043 604.326 416.84 603.141 423.057 598.992 427.121 593.894 432.142 586.011 432.44 578.898 432.44 555.722 432.44 532.546 432.44 509.369 432.5 503.62 432.5 497.692 432.44 492.299 430.408 486.905 428.376 482.103 423.774 481.333 418.036 479.377 401.958 478.962 385.701 480.207 369.563 480.681 363.705 481.451 357.489 484.889 352.767 491.172 344.22 503.323 343.443 513.815 343.503 533.316 343.503 552.877 343.503 572.378 343.563 583.166 343.563 595.85 344.519 601.718 353.664M483.289 374.045C483.526 385.641 483.763 397.296 484 408.891 484.059 414.45 484.415 420.546 488.327 424.491 492.299 428.496 498.582 428.794 504.213 428.794 529.641 428.854 555.07 428.854 580.498 428.914 585.359 428.914 590.575 428.854 594.605 426.105 601.363 421.622 602.074 412.119 602.192 403.99 602.252 393.769 602.37 383.549 602.43 373.328 602.489 366.036 602.252 357.908 596.976 352.887 592.59 348.763 586.011 348.105 579.965 347.806 555.959 346.492 531.834 346.492 507.769 347.747 500.538 348.165 492.476 349.002 487.734 354.56 483.289 359.701 483.17 367.232 483.289 374.045" stroke="#00B0F0" stroke-width="13.3333" stroke-linecap="round" stroke-linejoin="round" stroke-miterlimit="10" stroke-opacity="0.411765" fill="#FFFFFF" fill-rule="evenodd"/><path d="M802.378 375.52C802.674 385.712 802.437 395.904 801.609 406.096 800.84 415.394 798.651 426.123 790.368 430.354 786.344 432.381 781.67 432.441 777.174 432.441 752.206 432.441 727.238 432.5 702.27 432.5 695.525 432.5 688.07 432.202 683.219 427.434 679.846 424.096 678.486 419.209 677.539 414.5 674.995 402.103 674.048 389.407 674.699 376.712 675.35 365.029 678.604 351.678 689.017 346.612 693.573 344.407 698.72 344.168 703.749 343.99 726.824 343.274 749.958 343.334 773.032 344.228 780.132 344.466 787.705 345.003 793.267 349.413 800.721 355.314 802.082 365.983 802.378 375.52M683.574 355.433C680.379 359.367 679.669 364.731 679.255 369.798 678.131 384.043 678.604 398.407 680.675 412.593 681.325 416.944 682.272 421.593 685.467 424.692 689.372 428.507 695.407 428.745 700.909 428.805 725.345 428.805 749.78 428.864 774.215 428.924 780.842 428.924 788.238 428.685 792.912 423.977 797.172 419.685 797.822 413.07 798.118 406.99 798.769 394.175 798.71 381.301 798 368.486 797.763 364.016 797.349 359.248 794.746 355.612 790.723 350.009 782.972 348.877 776.109 348.4 751.792 346.612 727.356 346.612 703.039 348.341 695.939 348.817 688.07 349.89 683.574 355.433" stroke="#00B0F0" stroke-width="13.3333" stroke-linecap="round" stroke-linejoin="round" stroke-miterlimit="10" stroke-opacity="0.411765" fill="#FFFFFF" fill-rule="evenodd"/></g></svg>