<svg width="608" height="196" xmlns="http://www.w3.org/2000/svg" xmlns:xlink="http://www.w3.org/1999/xlink" overflow="hidden"><defs><clipPath id="clip0"><rect x="336" y="475" width="608" height="196"/></clipPath></defs><g clip-path="url(#clip0)" transform="translate(-336 -475)"><path d="M404.17 564.277 401.63 585.569 418.289 585.569 420.904 564.277ZM401.406 526.924C402.95 526.924 404.195 526.986 405.141 527.11 406.087 527.235 406.81 527.422 407.308 527.671 407.806 527.92 408.117 528.206 408.241 528.53 408.366 528.854 408.428 529.215 408.428 529.613L405.664 551.502 422.398 551.502 424.938 529.688C424.988 529.289 425.138 528.916 425.387 528.567 425.636 528.219 426.047 527.92 426.619 527.671 427.192 527.422 427.977 527.235 428.973 527.11 429.969 526.986 431.264 526.924 432.857 526.924 434.401 526.924 435.646 526.986 436.593 527.11 437.539 527.235 438.261 527.422 438.759 527.671 439.257 527.92 439.569 528.206 439.693 528.53 439.818 528.854 439.855 529.215 439.805 529.613L437.19 551.502 444.362 551.502C445.209 551.502 445.894 551.988 446.417 552.959 446.94 553.93 447.201 555.561 447.201 557.852 447.201 559.048 447.126 560.056 446.977 560.878 446.828 561.7 446.628 562.36 446.379 562.858 446.13 563.356 445.819 563.717 445.445 563.941 445.072 564.165 444.686 564.277 444.288 564.277L435.771 564.277 433.231 585.569 440.552 585.569C441.399 585.569 442.084 586.054 442.607 587.026 443.13 587.997 443.391 589.628 443.391 591.919 443.391 593.114 443.316 594.135 443.167 594.982 443.018 595.828 442.818 596.501 442.569 596.999 442.32 597.497 442.009 597.858 441.635 598.082 441.262 598.306 440.876 598.418 440.477 598.418L431.587 598.418 428.823 621.802C428.773 622.25 428.636 622.636 428.412 622.96 428.188 623.283 427.79 623.57 427.217 623.819 426.644 624.068 425.872 624.242 424.901 624.342 423.93 624.441 422.697 624.491 421.203 624.491 419.609 624.491 418.327 624.441 417.356 624.342 416.384 624.242 415.65 624.068 415.152 623.819 414.654 623.57 414.318 623.283 414.143 622.96 413.969 622.636 413.907 622.25 413.956 621.802L416.795 598.418 400.061 598.418 397.297 621.802C397.247 622.2 397.11 622.574 396.886 622.922 396.662 623.271 396.276 623.57 395.728 623.819 395.18 624.068 394.421 624.242 393.449 624.342 392.478 624.441 391.196 624.491 389.602 624.491 388.058 624.491 386.813 624.441 385.867 624.342 384.92 624.242 384.186 624.068 383.663 623.819 383.14 623.57 382.791 623.283 382.617 622.96 382.443 622.636 382.405 622.25 382.505 621.802L385.194 598.418 378.097 598.418C377.25 598.418 376.566 597.945 376.043 596.999 375.52 596.053 375.258 594.409 375.258 592.068 375.258 590.873 375.333 589.852 375.482 589.005 375.632 588.159 375.831 587.486 376.08 586.988 376.329 586.49 376.628 586.129 376.977 585.905 377.325 585.681 377.724 585.569 378.172 585.569L386.838 585.569 389.378 564.277 381.832 564.277C380.986 564.277 380.301 563.804 379.778 562.858 379.255 561.911 378.994 560.268 378.994 557.927 378.994 555.536 379.268 553.868 379.815 552.922 380.363 551.975 381.06 551.502 381.907 551.502L390.872 551.502 393.561 529.688C393.561 529.24 393.686 528.854 393.935 528.53 394.184 528.206 394.607 527.92 395.205 527.671 395.803 527.422 396.6 527.235 397.596 527.11 398.592 526.986 399.862 526.924 401.406 526.924Z" stroke="#FFFFFF" stroke-width="2" stroke-linejoin="round" stroke-miterlimit="10" fill="none" fill-rule="evenodd"/><text fill-opacity="0" font-family="Arial,Arial_MSFontService,Arial" font-size="97.5674" x="375.258" y="612.295">#</text><path d="M844.326 536.414 892.816 536.414C893.533 536.432 894.118 536.673 894.571 537.137 895.025 537.601 895.259 538.179 895.273 538.869L895.273 550.447C895.259 551.138 895.025 551.715 894.571 552.18 894.118 552.644 893.533 552.885 892.816 552.903L859.062 552.903 859.062 560.687C859.047 561.378 858.813 561.956 858.36 562.421 857.907 562.885 857.322 563.127 856.606 563.145 855.915 563.127 855.338 562.885 854.874 562.421 854.409 561.956 854.168 561.378 854.15 560.687L854.15 550.447C854.168 549.757 854.409 549.179 854.874 548.715 855.338 548.251 855.915 548.01 856.606 547.991L890.359 547.991 890.359 541.325 846.782 541.325 846.782 619.127 891.178 619.127 891.178 612.461 856.606 612.461C855.915 612.443 855.338 612.202 854.874 611.738 854.409 611.274 854.168 610.696 854.15 610.005L854.15 572.273C854.168 571.582 854.409 571.005 854.874 570.541 855.338 570.076 855.915 569.835 856.606 569.817L891.471 569.817C892.187 569.835 892.772 570.076 893.226 570.541 893.679 571.005 893.913 571.582 893.928 572.273L893.928 583.851C893.913 584.542 893.679 585.119 893.226 585.583 892.772 586.047 892.187 586.288 891.471 586.307L868.89 586.307C868.199 586.288 867.621 586.047 867.157 585.583 866.692 585.119 866.451 584.542 866.433 583.851 866.451 583.16 866.692 582.583 867.157 582.118 867.621 581.654 868.199 581.413 868.89 581.395L889.014 581.395 889.014 574.729 859.062 574.729 859.062 607.549 893.635 607.549C894.352 607.568 894.937 607.809 895.39 608.273 895.844 608.737 896.078 609.315 896.092 610.005L896.092 621.583C896.078 622.274 895.844 622.851 895.39 623.316 894.937 623.78 894.352 624.021 893.635 624.039L844.326 624.039C843.635 624.021 843.058 623.78 842.594 623.316 842.13 622.851 841.888 622.274 841.87 621.583L841.87 538.869C841.888 538.179 842.13 537.601 842.594 537.137 843.058 536.673 843.635 536.432 844.326 536.414ZM748.326 536.414 749.028 536.414C749.559 536.42 750.046 536.553 750.49 536.815 750.933 537.077 751.303 537.43 751.601 537.874L799.514 619.133 810.8 619.133 810.8 541.32 803.432 541.32 803.432 605.442C803.415 605.976 803.23 606.4 802.877 606.715 802.523 607.029 802.104 607.19 801.619 607.197 801.35 607.197 801.084 607.124 800.823 606.978 800.561 606.832 800.339 606.612 800.157 606.32L761.191 540.152C760.725 539.255 760.72 538.42 761.176 537.647 761.632 536.875 762.358 536.463 763.354 536.414 763.826 536.42 764.243 536.539 764.605 536.771 764.967 537.004 765.252 537.313 765.461 537.699L798.52 593.8 798.52 538.867C798.535 538.177 798.769 537.6 799.222 537.136 799.675 536.673 800.26 536.432 800.976 536.414L813.256 536.414C813.947 536.432 814.524 536.673 814.988 537.136 815.452 537.6 815.693 538.177 815.712 538.867L815.712 621.586C815.694 622.276 815.452 622.853 814.988 623.316 814.524 623.78 813.947 624.021 813.256 624.039L798.929 624.039C798.218 624.036 797.565 623.868 796.97 623.535 796.375 623.203 795.897 622.729 795.536 622.112L750.782 546.176 750.782 619.133 758.15 619.133 758.15 581.748C758.168 581.057 758.409 580.479 758.874 580.014 759.338 579.55 759.915 579.309 760.606 579.29 761.297 579.311 761.874 579.562 762.338 580.044 762.802 580.525 763.044 581.113 763.062 581.806L763.062 621.586C763.044 622.276 762.802 622.853 762.338 623.316 761.874 623.78 761.297 624.021 760.606 624.039L748.326 624.039C747.61 624.021 747.025 623.78 746.572 623.316 746.119 622.853 745.885 622.276 745.87 621.586L745.87 538.867C745.885 538.177 746.119 537.6 746.572 537.136 747.025 536.673 747.61 536.432 748.326 536.414ZM703.789 536.414 716.068 536.414C716.759 536.432 717.337 536.673 717.801 537.137 718.265 537.601 718.506 538.179 718.524 538.869L718.524 550.447C718.506 551.138 718.265 551.715 717.801 552.18 717.337 552.644 716.759 552.885 716.068 552.903L706.245 552.903 706.245 619.133 713.612 619.133 713.612 562.03C713.631 561.339 713.872 560.762 714.336 560.297 714.8 559.833 715.378 559.591 716.068 559.573 716.759 559.591 717.337 559.833 717.801 560.297 718.265 560.762 718.506 561.339 718.524 562.03L718.524 621.586C718.506 622.276 718.265 622.853 717.801 623.316 717.337 623.78 716.759 624.021 716.068 624.039L703.789 624.039C703.098 624.021 702.52 623.78 702.056 623.316 701.592 622.853 701.351 622.276 701.333 621.586L701.333 550.447C701.351 549.757 701.592 549.179 702.056 548.715 702.52 548.251 703.098 548.01 703.789 547.991L713.612 547.991 713.612 541.325 703.789 541.325C703.098 541.307 702.52 541.066 702.056 540.602 701.592 540.138 701.351 539.56 701.333 538.869 701.351 538.179 701.592 537.601 702.056 537.137 702.52 536.673 703.098 536.432 703.789 536.414ZM630.326 536.414 676.363 536.414C677.053 536.428 677.63 536.662 678.093 537.115 678.557 537.568 678.798 538.153 678.816 538.869L678.816 550.447C678.798 551.138 678.557 551.715 678.093 552.18 677.63 552.644 677.053 552.885 676.363 552.903L645.062 552.903 645.062 560.687C645.044 561.378 644.802 561.956 644.338 562.421 643.874 562.885 643.297 563.127 642.606 563.145 641.915 563.127 641.338 562.885 640.874 562.421 640.409 561.956 640.168 561.378 640.15 560.687L640.15 550.447C640.168 549.731 640.409 549.146 640.874 548.693 641.338 548.24 641.915 548.006 642.606 547.991L673.91 547.991 673.91 541.325 632.782 541.325 632.782 569.817 668.816 569.817C669.506 569.832 670.083 570.065 670.547 570.519 671.011 570.972 671.252 571.557 671.27 572.273L671.27 583.851C671.252 584.542 671.011 585.119 670.547 585.583 670.083 586.047 669.506 586.288 668.816 586.307L632.782 586.307 632.782 619.133 640.15 619.133 640.15 595.376C640.168 594.659 640.409 594.074 640.874 593.621 641.338 593.167 641.915 592.933 642.606 592.919 643.297 592.933 643.874 593.167 644.338 593.621 644.802 594.074 645.044 594.659 645.062 595.376L645.062 621.586C645.044 622.276 644.802 622.853 644.338 623.316 643.874 623.78 643.297 624.021 642.606 624.039L630.326 624.039C629.635 624.021 629.058 623.78 628.594 623.316 628.13 622.853 627.888 622.276 627.87 621.586L627.87 583.851C627.888 583.134 628.13 582.55 628.594 582.097 629.058 581.643 629.635 581.409 630.326 581.395L666.363 581.395 666.363 574.729 630.326 574.729C629.635 574.711 629.058 574.469 628.594 574.005 628.13 573.541 627.888 572.964 627.87 572.273L627.87 538.869C627.888 538.153 628.13 537.568 628.594 537.115 629.058 536.662 629.635 536.428 630.326 536.414ZM552.326 536.414 600.816 536.414C601.533 536.432 602.118 536.673 602.571 537.137 603.025 537.601 603.259 538.179 603.273 538.869L603.273 550.447C603.259 551.138 603.025 551.715 602.571 552.18 602.118 552.644 601.533 552.885 600.816 552.903L567.062 552.903 567.062 560.687C567.047 561.378 566.813 561.956 566.36 562.421 565.907 562.885 565.322 563.127 564.606 563.145 563.915 563.127 563.338 562.885 562.874 562.421 562.409 561.956 562.168 561.378 562.15 560.687L562.15 550.447C562.168 549.757 562.409 549.179 562.874 548.715 563.338 548.251 563.915 548.01 564.606 547.991L598.359 547.991 598.359 541.325 554.782 541.325 554.782 619.127 599.178 619.127 599.178 612.461 564.606 612.461C563.915 612.443 563.338 612.202 562.874 611.738 562.409 611.274 562.168 610.696 562.15 610.005L562.15 572.273C562.168 571.582 562.409 571.005 562.874 570.541 563.338 570.076 563.915 569.835 564.606 569.817L599.471 569.817C600.187 569.835 600.772 570.076 601.226 570.541 601.679 571.005 601.913 571.582 601.928 572.273L601.928 583.851C601.913 584.542 601.679 585.119 601.226 585.583 600.772 586.047 600.187 586.288 599.471 586.307L576.89 586.307C576.199 586.288 575.621 586.047 575.157 585.583 574.692 585.119 574.451 584.542 574.433 583.851 574.451 583.16 574.692 582.583 575.157 582.118 575.621 581.654 576.199 581.413 576.89 581.395L597.014 581.395 597.014 574.729 567.062 574.729 567.062 607.549 601.635 607.549C602.352 607.568 602.937 607.809 603.39 608.273 603.844 608.737 604.078 609.315 604.092 610.005L604.092 621.583C604.078 622.274 603.844 622.851 603.39 623.316 602.937 623.78 602.352 624.021 601.635 624.039L552.326 624.039C551.635 624.021 551.058 623.78 550.594 623.316 550.13 622.851 549.888 622.274 549.87 621.583L549.87 538.869C549.888 538.179 550.13 537.601 550.594 537.137 551.058 536.673 551.635 536.432 552.326 536.414ZM464.326 536.414 489.477 536.414C497.384 536.433 504.265 538.129 510.118 541.503 515.972 544.878 520.515 549.815 523.749 556.317 526.982 562.818 528.623 570.768 528.67 580.168 528.62 589.016 526.939 596.717 523.627 603.269 520.316 609.822 515.671 614.908 509.694 618.529 503.716 622.149 496.704 623.986 488.658 624.039L464.326 624.039C463.61 624.021 463.025 623.78 462.572 623.316 462.119 622.851 461.885 622.274 461.87 621.583L461.87 550.447C461.885 549.757 462.119 549.179 462.572 548.715 463.025 548.251 463.61 548.01 464.326 547.991L489.536 547.991C498.002 548.07 504.577 550.91 509.26 556.51 513.944 562.11 516.321 569.996 516.39 580.168 516.356 586.645 515.222 592.296 512.988 597.121 510.755 601.947 507.628 605.699 503.606 608.38 499.585 611.06 494.875 612.42 489.477 612.461L476.606 612.461C475.89 612.443 475.305 612.202 474.852 611.738 474.398 611.274 474.165 610.696 474.15 610.005L474.15 561.972C474.164 561.281 474.398 560.703 474.852 560.238 475.305 559.774 475.89 559.533 476.606 559.514 477.297 559.533 477.874 559.774 478.338 560.238 478.802 560.703 479.044 561.281 479.062 561.972L479.062 607.549 489.477 607.549C493.949 607.516 497.827 606.367 501.111 604.104 504.394 601.841 506.937 598.664 508.739 594.574 510.54 590.484 511.454 585.682 511.478 580.168 511.435 571.327 509.517 564.581 505.722 559.931 501.927 555.281 496.512 552.939 489.477 552.903L466.782 552.903 466.782 619.127 488.658 619.127C495.815 619.084 502.012 617.468 507.25 614.279 512.488 611.091 516.539 606.589 519.404 600.774 522.269 594.959 523.72 588.09 523.758 580.168 523.772 572.707 522.561 566.065 520.123 560.242 517.686 554.419 513.935 549.827 508.871 546.468 503.807 543.108 497.342 541.394 489.477 541.325L464.326 541.325C463.61 541.307 463.025 541.066 462.572 540.602 462.119 540.138 461.885 539.56 461.87 538.869 461.885 538.179 462.119 537.601 462.572 537.137 463.025 536.673 463.61 536.432 464.326 536.414Z" stroke="#FFFFFF" stroke-width="2" stroke-linejoin="round" stroke-miterlimit="10" fill="none" fill-rule="evenodd"/><text fill-opacity="0" font-family="Arial,Arial_MSFontService,Arial" font-size="87.6257" x="461.87" y="613.086">DEFINE</text><path d="M0 0 10.278 86.7042" stroke="#FFFFFF" stroke-width="2" stroke-miterlimit="8" fill="none" fill-rule="evenodd" transform="matrix(-1 0 0 1 398.278 529)"/><path d="M0 0 10.278 86.7042" stroke="#FFFFFF" stroke-width="2" stroke-miterlimit="8" fill="none" fill-rule="evenodd" transform="matrix(-1 0 0 1 430.278 529)"/><path d="M0 0 58.2421 0.000104987" stroke="#FFFFFF" stroke-width="2" stroke-miterlimit="8" fill="none" fill-rule="evenodd" transform="matrix(-1 0 0 1 437.242 588)"/><path d="M0 0 58.2421 0.000104987" stroke="#FFFFFF" stroke-width="2" stroke-miterlimit="8" fill="none" fill-rule="evenodd" transform="matrix(-1 0 0 1 439.242 555)"/><path d="M0 0 10.278 86.7042" stroke="#FFFFFF" stroke-width="2" stroke-miterlimit="8" fill="none" fill-rule="evenodd" transform="matrix(-1 0 0 1 402.278 534)"/><path d="M0 0 10.278 86.7042" stroke="#FFFFFF" stroke-width="2" stroke-miterlimit="8" fill="none" fill-rule="evenodd" transform="matrix(-1 0 0 1 434.278 534)"/><path d="M0 0 58.2421 0.000104987" stroke="#FFFFFF" stroke-width="2" stroke-miterlimit="8" fill="none" fill-rule="evenodd" transform="matrix(-1 0 0 1 441.242 594)"/><path d="M0 0 58.2421 0.000104987" stroke="#FFFFFF" stroke-width="2" stroke-miterlimit="8" fill="none" fill-rule="evenodd" transform="matrix(-1 0 0 1 444.242 560)"/></g></svg>