<svg width="608" height="629" xmlns="http://www.w3.org/2000/svg" overflow="hidden"><defs><clipPath id="a"><path d="M336 42h608v629H336z"/></clipPath></defs><g clip-path="url(#a)" transform="translate(-336 -42)"><path d="M663.876 486.961c-15.266-12.954-12.988-36.456-12.496-56.504.246-8.575-2.216-19.678-10.711-20.727-9.664-1.172-14.097 11.844-13.85 21.652.431 19.061 3.755 41.206-10.034 54.407-10.219 9.808-25.977 10.302-40.197 10.117-23.392-.247-46.783-.494-70.113-.679-18.037-.185-38.781-1.727-49.431-16.285-12.496-17.149-3.755-42.872-14.343-61.193-4.001-6.97-10.587-12.399-13.419-19.924-4.74-12.461 4.247-28.129 17.359-30.35-10.095-28.746-13.789-59.836-10.711-90.185 1.539-15.607 4.925-30.967 8.249-46.265 2.216-10.363 4.493-20.85 8.926-30.473 4.678-10.116-.308-21.713-3.386-32.447-4.555-15.791-4.678-32.817-.431-48.67 1.785-6.786 7.572-14.867 13.912-11.967 11.203-25.477 31.517-46.82 56.386-59.28 11.511-5.8 27.886-8.637 35.457 1.85 17.79 24.736 47.153 38.554 76.516 46.45 29.362 7.957 59.956 11.041 89.011 19.986 29.117 8.944 57.741 24.983 72.884 51.446 4.247 7.403 7.387 15.483 12.865 21.96 4.371 5.182 10.034 9.007 14.897 13.695 18.59 18.074 23.207 46.079 23.145 72.049-.061 30.658-5.17 61.316-15.143 90.371 12.743 7.278 26.224 21.034 20.376 34.544-2.586 5.86-8.187 9.685-12.065 14.805-13.235 17.518-2.524 45.154-15.143 63.228-10.281 14.681-31.025 16.347-49 16.532-23.453.308-46.906.555-70.421.863-13.666.185-28.686-.123-39.089-9.006m176.484-215.47c-.431-23.194-4.37-48.053-20.621-64.585-6.525-6.662-14.836-11.659-20.499-19.123-4.924-6.415-7.571-14.249-11.388-21.405-13.05-23.996-39.15-38.184-65.435-45.586-26.224-7.402-53.739-9.376-80.147-16.47-36.258-9.623-69.868-28.931-96.584-55.333-3.016-3.022-7.94-2.344-12.065-1.172-33.302 9.561-60.695 37.629-69.498 71.248-1.969-1.604-2.831-4.565-1.908-6.971-2.278-2.837-6.463 1.11-7.633 4.565-6.156 17.58-6.217 37.197-.123 54.839 3.016 8.883 7.571 18.876 3.078 27.142-2.647 4.873-3.94 10.363-5.233 15.73-10.895 45.648-20.498 94.133-6.463 138.917.862 2.776 1.847 5.614 3.693 7.896 7.202 9.13 22.961 4.38 29.301-5.428 6.402-9.747 6.772-22.022 9.357-33.373 7.264-32.076 33.61-57.861 64.512-68.841 10.28-3.578 22.284-6.848 26.839-16.717 28.932 3.392 58.11 1.48 87.165 2.776 29.055 1.295 58.91 6.045 83.717 21.281 24.808 15.237 43.706 42.687 41.982 71.803-.431 7.217-1.908 14.99 1.662 21.22 4.494 7.834 14.774 9.685 23.761 10.672 2.34.247 4.863.493 6.956-.617 2.647-1.481 3.755-4.688 4.617-7.649 7.695-27.512 11.45-56.196 10.957-84.819m-290.919-12.645c-32.256 12.09-56.694 42.933-61.126 77.107-1.046 8.143-1.046 16.532-3.201 24.428 102.678-4.195 205.539-4.318 308.278-.247-7.694-9.746-4.801-23.687-5.294-36.086-1.169-28.252-22.653-52.557-48.076-64.832-25.423-12.276-54.355-14.62-82.548-15.854-21.176-.925-42.413-1.295-63.588-1.727-5.356-.062-11.265.062-15.143 3.701-7.88 7.403-19.145 9.747-29.302 13.51m73.438 171.302c.062-10.178 4.001-22.577 14.035-24.181 7.941-1.295 15.266 5.675 17.605 13.448 2.401 7.711 1.17 15.976.493 24.057-1.354 16.471 1.477 35.963 15.882 43.983 7.325 4.071 16.127 4.133 24.499 4.133 27.024-.062 54.109-.062 81.133-.124 8.248 0 16.682-.061 24.438-2.714 12.804-4.38 22.776-16.162 24.992-29.548 2.216-13.262-2.524-28.005 4.001-39.787 4.309-7.711 12.927-12.831 15.697-21.22 3.201-9.87-3.324-20.85-12.311-26.155-8.926-5.244-19.699-6.107-30.102-6.786-80.886-5.058-162.08-4.256-243.15-3.454-34.718.37-69.683.74-103.785 7.402-10.834 2.159-23.638 7.094-25.177 18.074-1.539 11.412 10.28 19.555 16.005 29.548 10.341 18.074.677 43.55 13.173 60.206 9.972 13.262 29.055 14.496 45.614 14.496 26.038 0 52.077 0 78.054.062 9.233 0 19.144-.185 26.777-5.429 8.249-5.613 11.942-16.038 12.804-26.031.8-9.994-.8-19.987-.677-29.98" fill="#00B0F0" fill-rule="evenodd"/><path d="M558.145 453.768c-11.044 1.533-22.702-4.662-27.611-14.659-4.847-9.998-2.576-23.001 5.4-30.73 7.976-7.789 21.045-9.629 30.862-4.477 9.878 5.152 15.707 16.99 13.866 27.969-.736 4.478-4.663 7.79-8.835 9.507-.798 4.662-4.05 8.894-8.344 10.856-1.657.798-3.498 1.227-5.338 1.534m-20.37-10.427a22.817 22.817 0 0010.614 6.379c2.393.613 4.909.858 7.424.674 3.375-.184 6.872-1.165 9.326-3.618 2.393-2.393 3.375-6.441 1.534-9.323 3.436.981 7.301-1.104 9.142-4.171 1.841-3.067 1.963-6.931 1.227-10.489-1.963-9.2-10.123-16.806-19.45-18.033-9.387-1.288-19.265 3.865-23.56 12.268-4.295 8.403-2.761 19.443 3.743 26.313m200.663 8.67c-10.538 4.426-23.693 1.246-31.113-7.357-7.42-8.665-8.417-22.194-2.432-31.857 5.986-9.725 18.518-14.837 29.554-12.032 11.099 2.743 19.765 13.154 20.513 24.501.187 3.366-.249 6.92-2.12 9.663-1.932 2.868-5.237 4.738-6.733 7.855-.749 1.434-.998 3.117-1.746 4.489-1.247 2.306-3.554 3.74-5.923 4.738m-2.245-3.18c1.621-.561 3.18-1.434 4.302-2.743 2.182-2.494 1.933-6.733-.561-8.977 3.305 1.309 7.233-.437 9.228-3.304 1.995-2.931 2.369-6.671 1.87-10.162-1.434-9.476-9.227-17.706-18.642-19.513-9.415-1.871-19.765 2.805-24.629 11.097-4.863 8.291-3.865 19.575 2.307 26.869 6.235 7.357 17.209 10.162 26.125 6.733" fill="#FFF" fill-rule="evenodd"/><path d="M599.03 391.506c2.772 4.202 3.512 9.453 4.004 14.52 1.479 14.89 1.233 29.965-.554 44.793-.739 5.994-1.972 12.419-6.284 16.62-5.298 5.19-13.492 5.499-20.885 5.499-24.089 0-48.177 0-72.266.062-5.976 0-12.136-.062-17.743-2.162-5.606-2.101-10.596-6.859-11.397-12.79-2.033-16.62-2.464-33.425-1.171-50.107.493-6.055 1.294-12.48 4.867-17.361 6.531-8.835 19.16-9.639 30.065-9.577 20.269 0 40.599 0 60.868.062 11.213 0 24.397.988 30.496 10.441m-123.092 21.069l.739 36.02c.062 5.746.432 12.048 4.498 16.126 4.127 4.139 10.658 4.448 16.51 4.448 26.43.062 52.86.062 79.289.124 5.052 0 10.474-.062 14.663-2.904 7.023-4.634 7.763-14.457 7.886-22.86.061-10.565.185-21.13.246-31.695.062-7.538-.185-15.941-5.668-21.131-4.559-4.263-11.397-4.943-17.681-5.251-24.951-1.36-50.025-1.36-75.038-.062-7.516.432-15.895 1.297-20.823 7.043-4.621 5.314-4.744 13.098-4.621 20.142m332.934 1.524c.31 10.535.062 21.071-.805 31.607-.805 9.611-3.097 20.702-11.768 25.076-4.212 2.095-9.105 2.156-13.813 2.156-26.138 0-52.276.062-78.414.062-7.061 0-14.866-.308-19.945-5.237-3.53-3.45-4.955-8.502-5.946-13.37a152.982 152.982 0 01-2.973-39.062c.682-12.076 4.088-25.877 14.989-31.114 4.77-2.28 10.158-2.526 15.423-2.711 24.156-.739 48.375-.678 72.531.246 7.432.247 15.36.801 21.183 5.361 7.804 6.099 9.229 17.128 9.538 26.986m-124.373-20.763c-3.345 4.066-4.088 9.611-4.522 14.848a195.914 195.914 0 001.487 44.238c.681 4.497 1.672 9.303 5.017 12.507 4.088 3.943 10.406 4.19 16.166 4.251 25.581 0 51.162.062 76.742.123 6.938 0 14.68-.246 19.573-5.113 4.46-4.437 5.141-11.275 5.451-17.56.681-13.247.619-26.555-.124-39.801-.248-4.621-.681-9.55-3.407-13.309-4.212-5.791-12.326-6.962-19.511-7.455-25.456-1.848-51.037-1.848-76.494-.061-7.433.493-15.671 1.602-20.378 7.332" fill="#00B0F0" fill-rule="evenodd"/><path d="M404.17 564.277l-2.54 21.292h16.659l2.615-21.292zm-2.764-37.353c1.544 0 2.789.062 3.735.186.946.125 1.669.312 2.167.561.498.249.809.535.933.859.125.324.187.685.187 1.083l-2.764 21.889h16.734l2.54-21.814c.05-.399.2-.772.449-1.121.249-.348.66-.647 1.232-.896.573-.249 1.358-.436 2.354-.561.996-.124 2.291-.186 3.884-.186 1.544 0 2.789.062 3.736.186.946.125 1.668.312 2.166.561.498.249.81.535.934.859.125.324.162.685.112 1.083l-2.615 21.889h7.172c.847 0 1.532.486 2.055 1.457.523.971.784 2.602.784 4.893 0 1.196-.075 2.204-.224 3.026-.149.822-.349 1.482-.598 1.98s-.56.859-.934 1.083a2.22 2.22 0 01-1.157.336h-8.517l-2.54 21.292h7.321c.847 0 1.532.485 2.055 1.457.523.971.784 2.602.784 4.893 0 1.195-.075 2.216-.224 3.063-.149.846-.349 1.519-.598 2.017s-.56.859-.934 1.083a2.22 2.22 0 01-1.158.336h-8.89l-2.764 23.384c-.05.448-.187.834-.411 1.158-.224.323-.622.61-1.195.859-.573.249-1.345.423-2.316.523-.971.099-2.204.149-3.698.149-1.594 0-2.876-.05-3.847-.149-.972-.1-1.706-.274-2.204-.523-.498-.249-.834-.536-1.009-.859-.174-.324-.236-.71-.187-1.158l2.839-23.384h-16.734l-2.764 23.384c-.05.398-.187.772-.411 1.12-.224.349-.61.648-1.158.897-.548.249-1.307.423-2.279.523-.971.099-2.253.149-3.847.149-1.544 0-2.789-.05-3.735-.149-.947-.1-1.681-.274-2.204-.523-.523-.249-.872-.536-1.046-.859-.174-.324-.212-.71-.112-1.158l2.689-23.384h-7.097c-.847 0-1.531-.473-2.054-1.419-.523-.946-.785-2.59-.785-4.931 0-1.195.075-2.216.224-3.063.15-.846.349-1.519.598-2.017s.548-.859.897-1.083a2.16 2.16 0 011.195-.336h8.666l2.54-21.292h-7.546c-.846 0-1.531-.473-2.054-1.419-.523-.947-.784-2.59-.784-4.931 0-2.391.274-4.059.821-5.005.548-.947 1.245-1.42 2.092-1.42h8.965l2.689-21.814c0-.448.125-.834.374-1.158.249-.324.672-.61 1.27-.859s1.395-.436 2.391-.561c.996-.124 2.266-.186 3.81-.186z" stroke="#FFF" stroke-width="2" stroke-linejoin="round" stroke-miterlimit="10" fill="none"/><text fill-opacity="0" font-family="Arial,Arial_MSFontService,sans-serif" font-size="97.567" x="375.258" y="612.295">#</text><path d="M844.326 536.414h48.49c.717.018 1.302.259 1.755.723.454.464.688 1.042.702 1.732v11.578c-.014.691-.248 1.268-.702 1.733-.453.464-1.038.705-1.755.723h-33.754v7.784c-.015.691-.249 1.269-.702 1.734-.453.464-1.038.706-1.754.724-.691-.018-1.268-.26-1.732-.724-.465-.465-.706-1.043-.724-1.734v-10.24c.018-.69.259-1.268.724-1.732.464-.464 1.041-.705 1.732-.724h33.753v-6.666h-43.577v77.802h44.396v-6.666h-34.572c-.691-.018-1.268-.259-1.732-.723-.465-.464-.706-1.042-.724-1.733v-37.732c.018-.691.259-1.268.724-1.732.464-.465 1.041-.706 1.732-.724h34.865c.716.018 1.301.259 1.755.724.453.464.687 1.041.702 1.732v11.578c-.015.691-.249 1.268-.702 1.732-.454.464-1.039.705-1.755.724H868.89c-.691-.019-1.269-.26-1.733-.724-.465-.464-.706-1.041-.724-1.732.018-.691.259-1.268.724-1.733.464-.464 1.042-.705 1.733-.723h20.124v-6.666h-29.952v32.82h34.573c.717.019 1.302.26 1.755.724.454.464.688 1.042.702 1.732v11.578c-.014.691-.248 1.268-.702 1.733-.453.464-1.038.705-1.755.723h-49.309c-.691-.018-1.268-.259-1.732-.723-.464-.465-.706-1.042-.724-1.733v-82.714c.018-.69.26-1.268.724-1.732.464-.464 1.041-.705 1.732-.723zm-96 0h.702a2.889 2.889 0 011.462.401c.443.262.813.615 1.111 1.059l47.913 81.259H810.8V541.32h-7.368v64.122c-.017.534-.202.958-.555 1.273a1.876 1.876 0 01-1.258.482c-.269 0-.535-.073-.796-.219a1.853 1.853 0 01-.666-.658l-38.966-66.168c-.466-.897-.471-1.732-.015-2.505.456-.772 1.182-1.184 2.178-1.233.472.006.889.125 1.251.357.362.233.647.542.856.928L798.52 593.8v-54.933c.015-.69.249-1.267.702-1.731.453-.463 1.038-.704 1.754-.722h12.28c.691.018 1.268.259 1.732.722.464.464.705 1.041.724 1.731v82.719c-.018.69-.26 1.267-.724 1.73-.464.464-1.041.705-1.732.723h-14.327a3.979 3.979 0 01-1.959-.504 3.774 3.774 0 01-1.434-1.423l-44.754-75.936v72.957h7.368v-37.385c.018-.691.259-1.269.724-1.734.464-.464 1.041-.705 1.732-.724.691.021 1.268.272 1.732.754.464.481.706 1.069.724 1.762v39.78c-.018.69-.26 1.267-.724 1.73-.464.464-1.041.705-1.732.723h-12.28c-.716-.018-1.301-.259-1.754-.723-.453-.463-.687-1.04-.702-1.73v-82.719c.015-.69.249-1.267.702-1.731.453-.463 1.038-.704 1.754-.722zm-44.537 0h12.279c.691.018 1.269.259 1.733.723.464.464.705 1.042.723 1.732v11.578c-.018.691-.259 1.268-.723 1.733-.464.464-1.042.705-1.733.723h-9.823v66.23h7.367V562.03c.019-.691.26-1.268.724-1.733.464-.464 1.042-.706 1.732-.724.691.018 1.269.26 1.733.724.464.465.705 1.042.723 1.733v59.556c-.018.69-.259 1.267-.723 1.73-.464.464-1.042.705-1.733.723h-12.279c-.691-.018-1.269-.259-1.733-.723-.464-.463-.705-1.04-.723-1.73v-71.139c.018-.69.259-1.268.723-1.732.464-.464 1.042-.705 1.733-.724h9.823v-6.666h-9.823c-.691-.018-1.269-.259-1.733-.723-.464-.464-.705-1.042-.723-1.733.018-.69.259-1.268.723-1.732.464-.464 1.042-.705 1.733-.723zm-73.463 0h46.037c.69.014 1.267.248 1.73.701.464.453.705 1.038.723 1.754v11.578c-.018.691-.259 1.268-.723 1.733-.463.464-1.04.705-1.73.723h-31.301v7.784c-.018.691-.26 1.269-.724 1.734-.464.464-1.041.706-1.732.724-.691-.018-1.268-.26-1.732-.724-.465-.465-.706-1.043-.724-1.734v-10.24c.018-.716.259-1.301.724-1.754.464-.453 1.041-.687 1.732-.702h31.304v-6.666h-41.128v28.492h36.034c.69.015 1.267.248 1.731.702.464.453.705 1.038.723 1.754v11.578c-.018.691-.259 1.268-.723 1.732-.464.464-1.041.705-1.731.724h-36.034v32.826h7.368v-23.757c.018-.717.259-1.302.724-1.755.464-.454 1.041-.688 1.732-.702.691.014 1.268.248 1.732.702.464.453.706 1.038.724 1.755v26.21c-.018.69-.26 1.267-.724 1.73-.464.464-1.041.705-1.732.723h-12.28c-.691-.018-1.268-.259-1.732-.723-.464-.463-.706-1.04-.724-1.73v-37.735c.018-.717.26-1.301.724-1.754.464-.454 1.041-.688 1.732-.702h36.037v-6.666h-36.037c-.691-.018-1.268-.26-1.732-.724-.464-.464-.706-1.041-.724-1.732v-33.404c.018-.716.26-1.301.724-1.754.464-.453 1.041-.687 1.732-.701zm-78 0h48.49c.717.018 1.302.259 1.755.723.454.464.688 1.042.702 1.732v11.578c-.014.691-.248 1.268-.702 1.733-.453.464-1.038.705-1.755.723h-33.754v7.784c-.015.691-.249 1.269-.702 1.734-.453.464-1.038.706-1.754.724-.691-.018-1.268-.26-1.732-.724-.465-.465-.706-1.043-.724-1.734v-10.24c.018-.69.259-1.268.724-1.732.464-.464 1.041-.705 1.732-.724h33.753v-6.666h-43.577v77.802h44.396v-6.666h-34.572c-.691-.018-1.268-.259-1.732-.723-.465-.464-.706-1.042-.724-1.733v-37.732c.018-.691.259-1.268.724-1.732.464-.465 1.041-.706 1.732-.724h34.865c.716.018 1.301.259 1.755.724.453.464.687 1.041.702 1.732v11.578c-.015.691-.249 1.268-.702 1.732-.454.464-1.039.705-1.755.724H576.89c-.691-.019-1.269-.26-1.733-.724-.465-.464-.706-1.041-.724-1.732.018-.691.259-1.268.724-1.733.464-.464 1.042-.705 1.733-.723h20.124v-6.666h-29.952v32.82h34.573c.717.019 1.302.26 1.755.724.454.464.688 1.042.702 1.732v11.578c-.014.691-.248 1.268-.702 1.733-.453.464-1.038.705-1.755.723h-49.309c-.691-.018-1.268-.259-1.732-.723-.464-.465-.706-1.042-.724-1.733v-82.714c.018-.69.26-1.268.724-1.732.464-.464 1.041-.705 1.732-.723zm-88 0h25.151c7.907.019 14.788 1.715 20.641 5.089 5.854 3.375 10.397 8.312 13.631 14.814 3.233 6.501 4.874 14.451 4.921 23.851-.05 8.848-1.731 16.549-5.043 23.101-3.311 6.553-7.956 11.639-13.933 15.26-5.978 3.62-12.99 5.457-21.036 5.51h-24.332c-.716-.018-1.301-.259-1.754-.723-.453-.465-.687-1.042-.702-1.733v-71.136c.015-.69.249-1.268.702-1.732.453-.464 1.038-.705 1.754-.724h25.21c8.466.079 15.041 2.919 19.724 8.519 4.684 5.6 7.061 13.486 7.13 23.658-.034 6.477-1.168 12.128-3.402 16.953-2.233 4.826-5.36 8.578-9.382 11.259-4.021 2.68-8.731 4.04-14.129 4.081h-12.871c-.716-.018-1.301-.259-1.754-.723-.454-.464-.687-1.042-.702-1.733v-48.033c.014-.691.248-1.269.702-1.734.453-.464 1.038-.705 1.754-.724.691.019 1.268.26 1.732.724.464.465.706 1.043.724 1.734v45.577h10.415c4.472-.033 8.35-1.182 11.634-3.445 3.283-2.263 5.826-5.44 7.628-9.53 1.801-4.09 2.715-8.892 2.739-14.406-.043-8.841-1.961-15.587-5.756-20.237-3.795-4.65-9.21-6.992-16.245-7.028h-22.695v66.224h21.876c7.157-.043 13.354-1.659 18.592-4.848 5.238-3.188 9.289-7.69 12.154-13.505s4.316-12.684 4.354-20.606c.014-7.461-1.197-14.103-3.635-19.926-2.437-5.823-6.188-10.415-11.252-13.774-5.064-3.36-11.529-5.074-19.394-5.143h-25.151c-.716-.018-1.301-.259-1.754-.723-.453-.464-.687-1.042-.702-1.733.015-.69.249-1.268.702-1.732.453-.464 1.038-.705 1.754-.723z" stroke="#FFF" stroke-width="2" stroke-linejoin="round" stroke-miterlimit="10" fill="none"/><text fill-opacity="0" font-family="Arial,Arial_MSFontService,sans-serif" font-size="87.626" x="461.87" y="613.086">DEFINE</text><path d="M398.278 529L388 615.704M430.278 529L420 615.704M437.242 588H379m60.242-33H381m21.278-21L392 620.704M434.278 534L424 620.704M441.242 594H383m61.242-34H386" stroke="#FFF" stroke-width="2" stroke-miterlimit="8" fill="none"/></g></svg>