<svg width="417" height="446" xmlns="http://www.w3.org/2000/svg" overflow="hidden"><defs><clipPath id="a"><path d="M432 42h417v446H432z"/></clipPath></defs><g clip-path="url(#a)" transform="translate(-432 -42)" stroke-linecap="round" stroke-linejoin="round" stroke-miterlimit="10" fill-rule="evenodd"><path d="M664.357 478.641c-14.941-12.697-12.712-35.732-12.23-55.382.241-8.404-2.169-19.287-10.483-20.315-9.459-1.149-13.796 11.608-13.555 21.222.421 18.682 3.675 40.387-9.821 53.326-10.001 9.613-25.424 10.097-39.341 9.916-22.894-.242-45.788-.484-68.622-.665-17.653-.182-37.956-1.693-48.379-15.962-12.23-16.808-3.675-42.02-14.037-59.977-3.916-6.832-10.363-12.153-13.134-19.529-4.639-12.213 4.157-27.57 16.99-29.746-9.881-28.175-13.496-58.647-10.483-88.394 1.506-15.296 4.819-30.351 8.073-45.345 2.169-10.158 4.398-20.436 8.736-29.868 4.578-9.915-.302-21.282-3.314-31.802-4.458-15.478-4.579-32.165-.422-47.704 1.747-6.65 7.411-14.571 13.616-11.729 10.965-24.97 30.847-45.89 55.187-58.103 11.266-5.683 27.292-8.464 34.702 1.814 17.412 24.245 46.15 37.788 74.888 45.527 28.738 7.799 58.681 10.822 87.117 19.589 28.497 8.767 56.512 24.487 71.333 50.424 4.157 7.256 7.23 15.176 12.592 21.524 4.277 5.079 9.82 8.828 14.58 13.423 18.194 17.715 22.713 45.164 22.653 70.618-.06 30.049-5.061 60.098-14.821 88.575 12.471 7.134 25.665 20.617 19.942 33.857-2.531 5.744-8.013 9.493-11.809 14.511-12.953 17.171-2.47 44.257-14.821 61.972-10.061 14.39-30.364 16.022-47.956 16.204-22.955.302-45.909.544-68.923.846-13.375.181-28.076-.121-38.258-8.827m172.73-211.189c-.422-22.733-4.278-47.099-20.183-63.303-6.386-6.529-14.52-11.427-20.063-18.742-4.819-6.288-7.41-13.967-11.145-20.98-12.773-23.519-38.318-37.425-64.043-44.681-25.666-7.255-52.596-9.19-78.442-16.143-35.486-9.431-68.381-28.356-94.528-54.233-2.953-2.962-7.772-2.297-11.809-1.149-32.594 9.372-59.404 36.881-68.019 69.833-1.928-1.573-2.772-4.475-1.868-6.833-2.229-2.781-6.326 1.089-7.471 4.475-6.024 17.231-6.085 36.457-.12 53.749 2.952 8.706 7.41 18.501 3.012 26.603-2.59 4.776-3.856 10.157-5.121 15.417-10.663 44.741-20.062 92.263-6.326 136.158.844 2.72 1.808 5.502 3.615 7.739 7.049 8.948 22.472 4.292 28.678-5.321 6.266-9.553 6.627-21.584 9.157-32.709 7.11-31.44 32.896-56.712 63.14-67.474 10.061-3.507 21.809-6.711 26.268-16.385 28.316 3.325 56.873 1.451 85.31 2.721 28.437 1.269 57.657 5.925 81.936 20.859 24.28 14.933 42.776 41.838 41.089 70.376-.422 7.074-1.868 14.692 1.627 20.798 4.398 7.679 14.459 9.493 23.255 10.46 2.29.242 4.76.484 6.808-.605 2.591-1.451 3.675-4.595 4.519-7.497 7.531-26.965 11.206-55.08 10.724-83.133m-284.729-12.395c-31.57 11.851-55.488 42.081-59.826 75.576-1.024 7.981-1.024 16.204-3.133 23.943 100.493-4.112 201.166-4.233 301.719-.242-7.531-9.553-4.699-23.217-5.181-35.37-1.145-27.691-22.171-51.512-47.053-63.544-24.883-12.032-53.199-14.329-80.792-15.538-20.725-.907-41.511-1.27-62.236-1.693-5.241-.061-11.025.06-14.821 3.627-7.711 7.256-18.737 9.553-28.677 13.241m71.875 167.9c.06-9.976 3.916-22.129 13.736-23.701 7.772-1.27 14.941 5.562 17.231 13.18 2.35 7.558 1.145 15.66.482 23.58-1.325 16.143 1.446 35.249 15.544 43.109 7.169 3.99 15.784 4.05 23.978 4.05 26.449-.06 52.958-.06 79.406-.121 8.073 0 16.327-.06 23.918-2.66 12.532-4.293 22.292-15.841 24.461-28.961 2.169-12.999-2.47-27.449 3.916-38.997 4.217-7.557 12.652-12.575 15.363-20.798 3.133-9.674-3.253-20.436-12.05-25.635-8.735-5.14-19.279-5.986-29.46-6.651-79.166-4.958-158.632-4.172-237.978-3.386-33.979.363-68.2.726-101.577 7.255-10.603 2.117-23.135 6.953-24.641 17.715-1.506 11.186 10.062 19.166 15.665 28.961 10.121 17.715.662 42.685 12.892 59.01 9.76 12.999 28.437 14.208 44.644 14.208 25.484 0 50.969 0 76.393.06 9.037 0 18.737-.181 26.208-5.32 8.073-5.502 11.688-15.72 12.531-25.515.784-9.794-.783-19.589-.662-29.383" stroke="#00B0F0" fill="#00B0F0"/><path d="M561.076 445.272c-10.836 1.505-22.273-4.573-27.089-14.382-4.756-9.81-2.529-22.567 5.297-30.15 7.826-7.643 20.648-9.448 30.28-4.393 9.692 5.055 15.411 16.67 13.605 27.441-.723 4.394-4.575 7.643-8.669 9.328-.782 4.574-3.973 8.726-8.187 10.652-1.625.782-3.431 1.203-5.237 1.504m-19.986-10.23a22.385 22.385 0 0010.414 6.258 22.7 22.7 0 007.284.662c3.311-.18 6.743-1.143 9.151-3.55 2.347-2.347 3.31-6.319 1.504-9.147 3.372.963 7.164-1.083 8.97-4.092 1.806-3.009 1.926-6.801 1.204-10.291-1.926-9.027-9.933-16.489-19.083-17.692-9.21-1.264-18.902 3.791-23.116 12.035-4.214 8.245-2.709 19.077 3.672 25.817m196.461 8.542c-10.147 4.263-22.815 1.201-29.96-7.084-7.145-8.344-8.106-21.372-2.342-30.677 5.764-9.365 17.832-14.288 28.459-11.586 10.688 2.641 19.033 12.667 19.754 23.593.18 3.242-.24 6.664-2.041 9.305-1.862 2.762-5.044 4.563-6.485 7.564-.72 1.381-.961 3.002-1.681 4.323-1.201 2.221-3.422 3.602-5.704 4.562m-2.161-3.061c1.561-.541 3.062-1.381 4.142-2.642 2.102-2.401 1.862-6.483-.54-8.645 3.182 1.261 6.965-.42 8.886-3.181 1.921-2.822 2.282-6.424 1.801-9.786-1.381-9.125-8.886-17.05-17.952-18.79-9.066-1.801-19.033 2.701-23.716 10.686-4.683 7.984-3.722 18.85 2.221 25.874 6.005 7.084 16.572 9.785 25.158 6.484" stroke="#FFF" fill="#FFF"/><path d="M600.643 384.778c2.709 4.11 3.432 9.248 3.913 14.204 1.445 14.566 1.205 29.314-.541 43.82-.723 5.863-1.927 12.148-6.142 16.258-5.177 5.077-13.185 5.38-20.41 5.38-23.541 0-47.082 0-70.623.06-5.84 0-11.861-.06-17.34-2.115-5.479-2.055-10.356-6.709-11.138-12.512-1.987-16.258-2.409-32.698-1.144-49.018.481-5.923 1.264-12.209 4.756-16.984 6.382-8.643 18.725-9.428 29.381-9.368 19.809 0 39.677 0 59.485.061 10.958 0 23.842.967 29.803 10.214m-120.294 20.611l.722 35.237c.06 5.621.422 11.786 4.395 15.775 4.034 4.05 10.416 4.352 16.136 4.352 25.829.06 51.658.06 77.487.121 4.937 0 10.235-.061 14.329-2.841 6.864-4.533 7.586-14.143 7.707-22.363.06-10.336.18-20.671.24-31.007.061-7.374-.18-15.594-5.539-20.671-4.455-4.17-11.138-4.835-17.279-5.137-24.384-1.33-48.889-1.33-73.333-.061-7.345.423-15.533 1.27-20.35 6.891-4.515 5.198-4.636 12.813-4.515 19.704m325.027 1.49c.301 10.307.06 20.614-.781 30.92-.781 9.403-3.004 20.252-11.417 24.531-4.086 2.05-8.833 2.11-13.4 2.11-25.358 0-50.716.06-76.074.06-6.85 0-14.422-.301-19.349-5.123-3.425-3.375-4.807-8.318-5.769-13.079a150.84 150.84 0 01-2.884-38.213c.661-11.814 3.966-25.315 14.542-30.438 4.627-2.23 9.855-2.471 14.962-2.652 23.435-.723 46.931-.663 70.366.241 7.21.241 14.902.784 20.55 5.244 7.572 5.967 8.954 16.756 9.254 26.399m-120.66-20.312c-3.245 3.978-3.966 9.403-4.387 14.526a193.19 193.19 0 001.442 43.276c.661 4.4 1.623 9.101 4.867 12.235 3.966 3.858 10.095 4.099 15.684 4.159 24.817 0 49.634.06 74.451.121 6.73 0 14.242-.241 18.989-5.003 4.326-4.339 4.987-11.03 5.288-17.178.661-12.958.601-25.977-.12-38.936-.241-4.52-.661-9.342-3.305-13.019-4.086-5.665-11.958-6.811-18.929-7.293-24.697-1.808-49.514-1.808-74.211-.06-7.211.482-15.203 1.567-19.769 7.172" stroke="#00B0F0" fill="#00B0F0"/></g></svg>