<svg width="608" height="196" xmlns="http://www.w3.org/2000/svg" overflow="hidden"><defs><clipPath id="a"><path d="M336 475h608v196H336z"/></clipPath></defs><g clip-path="url(#a)" transform="translate(-336 -475)"><path d="M404.17 564.277l-2.54 21.292h16.659l2.615-21.292zm-2.764-37.353c1.544 0 2.789.062 3.735.186.946.125 1.669.312 2.167.561.498.249.809.535.933.859.125.324.187.685.187 1.083l-2.764 21.889h16.734l2.54-21.814c.05-.399.2-.772.449-1.121.249-.348.66-.647 1.232-.896.573-.249 1.358-.436 2.354-.561.996-.124 2.291-.186 3.884-.186 1.544 0 2.789.062 3.736.186.946.125 1.668.312 2.166.561.498.249.81.535.934.859.125.324.162.685.112 1.083l-2.615 21.889h7.172c.847 0 1.532.486 2.055 1.457.523.971.784 2.602.784 4.893 0 1.196-.075 2.204-.224 3.026-.149.822-.349 1.482-.598 1.98s-.56.859-.934 1.083a2.22 2.22 0 01-1.157.336h-8.517l-2.54 21.292h7.321c.847 0 1.532.485 2.055 1.457.523.971.784 2.602.784 4.893 0 1.195-.075 2.216-.224 3.063-.149.846-.349 1.519-.598 2.017s-.56.859-.934 1.083a2.22 2.22 0 01-1.158.336h-8.89l-2.764 23.384c-.05.448-.187.834-.411 1.158-.224.323-.622.61-1.195.859-.573.249-1.345.423-2.316.523-.971.099-2.204.149-3.698.149-1.594 0-2.876-.05-3.847-.149-.972-.1-1.706-.274-2.204-.523-.498-.249-.834-.536-1.009-.859-.174-.324-.236-.71-.187-1.158l2.839-23.384h-16.734l-2.764 23.384c-.05.398-.187.772-.411 1.12-.224.349-.61.648-1.158.897-.548.249-1.307.423-2.279.523-.971.099-2.253.149-3.847.149-1.544 0-2.789-.05-3.735-.149-.947-.1-1.681-.274-2.204-.523-.523-.249-.872-.536-1.046-.859-.174-.324-.212-.71-.112-1.158l2.689-23.384h-7.097c-.847 0-1.531-.473-2.054-1.419-.523-.946-.785-2.59-.785-4.931 0-1.195.075-2.216.224-3.063.15-.846.349-1.519.598-2.017s.548-.859.897-1.083a2.16 2.16 0 011.195-.336h8.666l2.54-21.292h-7.546c-.846 0-1.531-.473-2.054-1.419-.523-.947-.784-2.59-.784-4.931 0-2.391.274-4.059.821-5.005.548-.947 1.245-1.42 2.092-1.42h8.965l2.689-21.814c0-.448.125-.834.374-1.158.249-.324.672-.61 1.27-.859s1.395-.436 2.391-.561c.996-.124 2.266-.186 3.81-.186z" stroke="#FFF" stroke-width="2" stroke-linejoin="round" stroke-miterlimit="10" fill="none"/><text fill-opacity="0" font-family="Arial,Arial_MSFontService,Arial" font-size="97.567" x="375.258" y="612.295">#</text><path d="M844.326 536.414h48.49c.717.018 1.302.259 1.755.723.454.464.688 1.042.702 1.732v11.578c-.014.691-.248 1.268-.702 1.733-.453.464-1.038.705-1.755.723h-33.754v7.784c-.015.691-.249 1.269-.702 1.734-.453.464-1.038.706-1.754.724-.691-.018-1.268-.26-1.732-.724-.465-.465-.706-1.043-.724-1.734v-10.24c.018-.69.259-1.268.724-1.732.464-.464 1.041-.705 1.732-.724h33.753v-6.666h-43.577v77.802h44.396v-6.666h-34.572c-.691-.018-1.268-.259-1.732-.723-.465-.464-.706-1.042-.724-1.733v-37.732c.018-.691.259-1.268.724-1.732.464-.465 1.041-.706 1.732-.724h34.865c.716.018 1.301.259 1.755.724.453.464.687 1.041.702 1.732v11.578c-.015.691-.249 1.268-.702 1.732-.454.464-1.039.705-1.755.724H868.89c-.691-.019-1.269-.26-1.733-.724-.465-.464-.706-1.041-.724-1.732.018-.691.259-1.268.724-1.733.464-.464 1.042-.705 1.733-.723h20.124v-6.666h-29.952v32.82h34.573c.717.019 1.302.26 1.755.724.454.464.688 1.042.702 1.732v11.578c-.014.691-.248 1.268-.702 1.733-.453.464-1.038.705-1.755.723h-49.309c-.691-.018-1.268-.259-1.732-.723-.464-.465-.706-1.042-.724-1.733v-82.714c.018-.69.26-1.268.724-1.732.464-.464 1.041-.705 1.732-.723zm-96 0h.702a2.889 2.889 0 011.462.401c.443.262.813.615 1.111 1.059l47.913 81.259H810.8V541.32h-7.368v64.122c-.017.534-.202.958-.555 1.273a1.876 1.876 0 01-1.258.482c-.269 0-.535-.073-.796-.219a1.853 1.853 0 01-.666-.658l-38.966-66.168c-.466-.897-.471-1.732-.015-2.505.456-.772 1.182-1.184 2.178-1.233.472.006.889.125 1.251.357.362.233.647.542.856.928L798.52 593.8v-54.933c.015-.69.249-1.267.702-1.731.453-.463 1.038-.704 1.754-.722h12.28c.691.018 1.268.259 1.732.722.464.464.705 1.041.724 1.731v82.719c-.018.69-.26 1.267-.724 1.73-.464.464-1.041.705-1.732.723h-14.327a3.979 3.979 0 01-1.959-.504 3.774 3.774 0 01-1.434-1.423l-44.754-75.936v72.957h7.368v-37.385c.018-.691.259-1.269.724-1.734.464-.464 1.041-.705 1.732-.724.691.021 1.268.272 1.732.754.464.481.706 1.069.724 1.762v39.78c-.018.69-.26 1.267-.724 1.73-.464.464-1.041.705-1.732.723h-12.28c-.716-.018-1.301-.259-1.754-.723-.453-.463-.687-1.04-.702-1.73v-82.719c.015-.69.249-1.267.702-1.731.453-.463 1.038-.704 1.754-.722zm-44.537 0h12.279c.691.018 1.269.259 1.733.723.464.464.705 1.042.723 1.732v11.578c-.018.691-.259 1.268-.723 1.733-.464.464-1.042.705-1.733.723h-9.823v66.23h7.367V562.03c.019-.691.26-1.268.724-1.733.464-.464 1.042-.706 1.732-.724.691.018 1.269.26 1.733.724.464.465.705 1.042.723 1.733v59.556c-.018.69-.259 1.267-.723 1.73-.464.464-1.042.705-1.733.723h-12.279c-.691-.018-1.269-.259-1.733-.723-.464-.463-.705-1.04-.723-1.73v-71.139c.018-.69.259-1.268.723-1.732.464-.464 1.042-.705 1.733-.724h9.823v-6.666h-9.823c-.691-.018-1.269-.259-1.733-.723-.464-.464-.705-1.042-.723-1.733.018-.69.259-1.268.723-1.732.464-.464 1.042-.705 1.733-.723zm-73.463 0h46.037c.69.014 1.267.248 1.73.701.464.453.705 1.038.723 1.754v11.578c-.018.691-.259 1.268-.723 1.733-.463.464-1.04.705-1.73.723h-31.301v7.784c-.018.691-.26 1.269-.724 1.734-.464.464-1.041.706-1.732.724-.691-.018-1.268-.26-1.732-.724-.465-.465-.706-1.043-.724-1.734v-10.24c.018-.716.259-1.301.724-1.754.464-.453 1.041-.687 1.732-.702h31.304v-6.666h-41.128v28.492h36.034c.69.015 1.267.248 1.731.702.464.453.705 1.038.723 1.754v11.578c-.018.691-.259 1.268-.723 1.732-.464.464-1.041.705-1.731.724h-36.034v32.826h7.368v-23.757c.018-.717.259-1.302.724-1.755.464-.454 1.041-.688 1.732-.702.691.014 1.268.248 1.732.702.464.453.706 1.038.724 1.755v26.21c-.018.69-.26 1.267-.724 1.73-.464.464-1.041.705-1.732.723h-12.28c-.691-.018-1.268-.259-1.732-.723-.464-.463-.706-1.04-.724-1.73v-37.735c.018-.717.26-1.301.724-1.754.464-.454 1.041-.688 1.732-.702h36.037v-6.666h-36.037c-.691-.018-1.268-.26-1.732-.724-.464-.464-.706-1.041-.724-1.732v-33.404c.018-.716.26-1.301.724-1.754.464-.453 1.041-.687 1.732-.701zm-78 0h48.49c.717.018 1.302.259 1.755.723.454.464.688 1.042.702 1.732v11.578c-.014.691-.248 1.268-.702 1.733-.453.464-1.038.705-1.755.723h-33.754v7.784c-.015.691-.249 1.269-.702 1.734-.453.464-1.038.706-1.754.724-.691-.018-1.268-.26-1.732-.724-.465-.465-.706-1.043-.724-1.734v-10.24c.018-.69.259-1.268.724-1.732.464-.464 1.041-.705 1.732-.724h33.753v-6.666h-43.577v77.802h44.396v-6.666h-34.572c-.691-.018-1.268-.259-1.732-.723-.465-.464-.706-1.042-.724-1.733v-37.732c.018-.691.259-1.268.724-1.732.464-.465 1.041-.706 1.732-.724h34.865c.716.018 1.301.259 1.755.724.453.464.687 1.041.702 1.732v11.578c-.015.691-.249 1.268-.702 1.732-.454.464-1.039.705-1.755.724H576.89c-.691-.019-1.269-.26-1.733-.724-.465-.464-.706-1.041-.724-1.732.018-.691.259-1.268.724-1.733.464-.464 1.042-.705 1.733-.723h20.124v-6.666h-29.952v32.82h34.573c.717.019 1.302.26 1.755.724.454.464.688 1.042.702 1.732v11.578c-.014.691-.248 1.268-.702 1.733-.453.464-1.038.705-1.755.723h-49.309c-.691-.018-1.268-.259-1.732-.723-.464-.465-.706-1.042-.724-1.733v-82.714c.018-.69.26-1.268.724-1.732.464-.464 1.041-.705 1.732-.723zm-88 0h25.151c7.907.019 14.788 1.715 20.641 5.089 5.854 3.375 10.397 8.312 13.631 14.814 3.233 6.501 4.874 14.451 4.921 23.851-.05 8.848-1.731 16.549-5.043 23.101-3.311 6.553-7.956 11.639-13.933 15.26-5.978 3.62-12.99 5.457-21.036 5.51h-24.332c-.716-.018-1.301-.259-1.754-.723-.453-.465-.687-1.042-.702-1.733v-71.136c.015-.69.249-1.268.702-1.732.453-.464 1.038-.705 1.754-.724h25.21c8.466.079 15.041 2.919 19.724 8.519 4.684 5.6 7.061 13.486 7.13 23.658-.034 6.477-1.168 12.128-3.402 16.953-2.233 4.826-5.36 8.578-9.382 11.259-4.021 2.68-8.731 4.04-14.129 4.081h-12.871c-.716-.018-1.301-.259-1.754-.723-.454-.464-.687-1.042-.702-1.733v-48.033c.014-.691.248-1.269.702-1.734.453-.464 1.038-.705 1.754-.724.691.019 1.268.26 1.732.724.464.465.706 1.043.724 1.734v45.577h10.415c4.472-.033 8.35-1.182 11.634-3.445 3.283-2.263 5.826-5.44 7.628-9.53 1.801-4.09 2.715-8.892 2.739-14.406-.043-8.841-1.961-15.587-5.756-20.237-3.795-4.65-9.21-6.992-16.245-7.028h-22.695v66.224h21.876c7.157-.043 13.354-1.659 18.592-4.848 5.238-3.188 9.289-7.69 12.154-13.505s4.316-12.684 4.354-20.606c.014-7.461-1.197-14.103-3.635-19.926-2.437-5.823-6.188-10.415-11.252-13.774-5.064-3.36-11.529-5.074-19.394-5.143h-25.151c-.716-.018-1.301-.259-1.754-.723-.453-.464-.687-1.042-.702-1.733.015-.69.249-1.268.702-1.732.453-.464 1.038-.705 1.754-.723z" stroke="#FFF" stroke-width="2" stroke-linejoin="round" stroke-miterlimit="10" fill="none"/><text fill-opacity="0" font-family="Arial,Arial_MSFontService,Arial" font-size="87.626" x="461.87" y="613.086">DEFINE</text><path d="M398.278 529L388 615.704M430.278 529L420 615.704M437.242 588H379m60.242-33H381m21.278-21L392 620.704M434.278 534L424 620.704M441.242 594H383m61.242-34H386" stroke="#FFF" stroke-width="2" stroke-miterlimit="8" fill="none"/></g></svg>